<svg width="96" height="21" viewBox="0 0 96 21" fill="none" xmlns="http://www.w3.org/2000/svg">
<path d="M0.531571 13.9969C0.372571 13.9899 0.242608 13.8969 0.144608 13.7189C0.0686083 13.6349 0.0205653 13.5199 0.000565291 13.3719C-0.00643471 13.2379 0.0515765 12.9939 0.174577 12.6389C0.298577 12.2709 0.504619 11.7129 0.792619 10.9659C0.949619 10.4659 1.07259 10.1049 1.16359 9.8819C1.25459 9.6459 1.30257 9.47492 1.30757 9.36792C1.31457 9.22192 1.3326 9.10192 1.3636 9.00992C1.4086 8.90592 1.43358 8.8069 1.43758 8.7139C1.51758 8.7169 1.60158 8.64791 1.68758 8.50492C1.77458 8.36192 1.8506 8.16492 1.9156 7.91492C1.9796 7.69092 2.03458 7.5129 2.08058 7.3819C2.14058 7.2379 2.17158 7.13891 2.17458 7.08591C2.24558 6.98191 2.3196 6.81892 2.3976 6.59592C2.4876 6.37292 2.61957 6.10591 2.79457 5.79291C2.91957 5.39891 3.05856 4.99093 3.21156 4.57093C3.36556 4.13793 3.51762 3.73791 3.66762 3.37091C3.83262 2.99191 3.9666 2.69792 4.0696 2.48892C4.2346 2.08292 4.36156 1.80191 4.44856 1.64591C4.53656 1.47591 4.54162 1.36291 4.46462 1.30591C4.37462 1.23491 4.35961 1.12092 4.42061 0.962923C4.48161 0.805923 4.6356 0.632911 4.8846 0.443911C5.0396 0.277911 5.17157 0.1639 5.28157 0.1019C5.39157 0.0269004 5.5266 -0.00608221 5.6866 0.000917788C5.8596 0.00891779 6.1056 0.0339229 6.4236 0.0749229C6.6626 0.0999229 6.9156 0.117923 7.1816 0.130923C7.4616 0.143923 7.63462 0.151909 7.70162 0.154909C7.81862 0.213909 7.96258 0.279922 8.13258 0.354922C8.30359 0.415922 8.45361 0.476921 8.58461 0.535921C8.72861 0.595921 8.79962 0.645915 8.79762 0.685915C8.79462 0.765915 8.81862 0.820917 8.87062 0.849917C8.93662 0.865917 9.00262 0.881898 9.06862 0.898898C9.16162 0.902898 9.28458 0.981897 9.43758 1.1359C9.59158 1.2769 9.74959 1.45793 9.91359 1.67893C10.0766 1.88693 10.2006 2.10592 10.2826 2.33692C10.3786 2.56792 10.4496 2.78491 10.4936 2.98691C10.5506 3.18991 10.5376 3.47592 10.4536 3.84592C10.4306 4.04492 10.3876 4.24392 10.3256 4.44092C10.2766 4.63892 10.2236 4.76993 10.1676 4.83393C10.0846 4.88393 10.0086 4.9469 9.93861 5.0239C9.86761 5.0999 9.83159 5.17192 9.82759 5.23892C9.82559 5.29192 9.7736 5.39591 9.6736 5.55191C9.5736 5.69391 9.44557 5.8619 9.28957 6.0549C9.13357 6.2479 8.96461 6.4399 8.78261 6.6319C8.59961 6.8239 8.42562 6.9889 8.25862 7.1279C8.07562 7.3329 7.85959 7.52292 7.61159 7.69892C7.37659 7.87492 7.1626 8.01791 6.9706 8.12891C6.6176 8.27291 6.22357 8.4149 5.78957 8.5549C5.36957 8.6959 4.96359 8.8099 4.57259 8.8989C4.19459 8.9879 3.87958 9.01991 3.62758 8.99491C3.23858 9.03091 2.98261 9.07191 2.86061 9.11991C2.75261 9.15491 2.66657 9.26391 2.60457 9.44791C2.53057 9.61791 2.45557 9.79491 2.38057 9.97891C2.31857 10.1489 2.28659 10.2679 2.28359 10.3339C2.25459 10.3869 2.18056 10.5499 2.06056 10.8249C1.95456 11.0869 1.83359 11.3949 1.69759 11.7489C1.57459 12.1029 1.45157 12.4519 1.32857 12.7929C1.20557 13.1339 1.1126 13.4169 1.0486 13.6409C0.9866 13.8249 0.915611 13.9279 0.834611 13.9509C0.752611 13.9869 0.651571 14.0029 0.531571 13.9969ZM3.29659 7.91892C3.34759 7.97492 3.5536 7.9909 3.9156 7.9679C4.2766 7.9439 4.6676 7.86193 5.0876 7.72193C5.3586 7.64093 5.6306 7.53992 5.9026 7.41892C6.1886 7.29892 6.46161 7.16491 6.72261 7.01691C6.85961 6.92991 7.06762 6.77192 7.34462 6.54492C7.62262 6.31792 7.90161 6.0439 8.18361 5.7229C8.22661 5.6579 8.29957 5.53491 8.40157 5.35291C8.51657 5.15791 8.61862 4.97591 8.70662 4.80591C8.83562 4.62491 8.96757 4.35791 9.10457 4.00391C9.24157 3.63691 9.28258 3.3309 9.22658 3.0889C9.17658 2.7389 9.01858 2.4119 8.75258 2.1059C8.48658 1.7859 8.16357 1.56391 7.78157 1.43991C7.49157 1.37291 7.24659 1.3349 7.04659 1.3259C6.85959 1.3169 6.65258 1.32691 6.42458 1.35691C6.20858 1.41391 6.0436 1.49892 5.9316 1.61392C5.8326 1.72992 5.69462 1.9769 5.51662 2.3559C5.41562 2.5379 5.26859 2.81792 5.07759 3.19592C4.88759 3.56093 4.72458 3.90693 4.58858 4.23493C4.30858 5.10293 4.03457 5.81691 3.76857 6.37891C3.51657 6.92791 3.35958 7.27391 3.29958 7.41791C3.30658 7.56591 3.29458 7.67191 3.26558 7.73691C3.23558 7.78891 3.24659 7.84992 3.29659 7.91892ZM10.0556 12.7769C9.94062 12.6789 9.85859 12.5809 9.80959 12.4859C9.77359 12.3909 9.78161 12.2109 9.83461 11.9459C9.89161 11.5749 9.95957 11.2509 10.0396 10.9749C10.1196 10.6849 10.2156 10.3559 10.3256 9.98691C10.3596 9.82791 10.4456 9.55892 10.5836 9.17792C10.7346 8.79792 10.9136 8.38593 11.1216 7.94193C11.3286 7.49693 11.5356 7.07991 11.7406 6.68891C11.9456 6.28491 12.1196 5.9859 12.2626 5.7919C12.3726 5.7169 12.5006 5.6899 12.6466 5.7099C12.8056 5.7309 12.9366 5.7969 13.0376 5.9079C13.1786 6.0349 13.1886 6.2489 13.0676 6.5499C12.9616 6.8389 12.7396 7.2959 12.4036 7.9209C12.2276 8.2729 12.0946 8.54091 12.0066 8.72391C11.9186 8.89291 11.8796 8.99791 11.8916 9.03891C11.9036 9.06591 11.9646 9.04891 12.0736 8.98691C12.1606 8.84391 12.3146 8.68391 12.5366 8.50791C12.7586 8.31791 12.9946 8.1349 13.2426 7.9599C13.4916 7.7849 13.7256 7.62892 13.9456 7.49192C14.1656 7.35492 14.3156 7.26891 14.3976 7.23291C14.5076 7.17091 14.6296 7.12291 14.7646 7.08991C14.9136 7.04291 15.0156 7.00792 15.0696 6.98392C15.3836 6.85092 15.6986 6.81292 16.0166 6.86692C16.3346 6.92192 16.5286 7.05092 16.5996 7.25492C16.6076 7.36192 16.6436 7.44391 16.7076 7.49991C16.7856 7.55691 16.8236 7.58591 16.8236 7.58591C16.8776 7.58791 16.9026 7.6089 16.9016 7.6489C16.9126 7.6899 16.9186 7.7099 16.9186 7.7099C16.9136 7.8029 16.8376 7.85992 16.6906 7.87992C16.5566 7.88692 16.3826 7.89191 16.1686 7.89591C15.9956 7.90091 15.8406 7.92691 15.7046 7.97391C15.5696 8.02091 15.4066 8.07992 15.2156 8.15192C14.6966 8.42092 14.1966 8.6849 13.7176 8.9429C13.2516 9.2019 12.7956 9.55392 12.3476 10.0009C12.2496 10.1029 12.1496 10.2249 12.0496 10.3669C11.9496 10.5099 11.8426 10.6649 11.7276 10.8329C11.6586 10.8959 11.5846 11.0399 11.5076 11.2629C11.4306 11.4859 11.3606 11.7029 11.2976 11.9139C11.2486 12.1119 11.2226 12.2309 11.2206 12.2709C11.2206 12.2709 11.1976 12.3369 11.1516 12.4679C11.1056 12.5859 11.0336 12.7029 10.9356 12.8179C10.7656 13.0239 10.6276 13.1239 10.5206 13.1189C10.4146 13.1139 10.2596 12.9999 10.0556 12.7769ZM18.2356 13.5579C18.0626 13.5499 17.9246 13.5099 17.8206 13.4379C17.7306 13.3669 17.6156 13.2679 17.4746 13.1419C17.2336 12.8639 17.0656 12.6019 16.9696 12.3579C16.8756 12.0999 16.8526 11.8579 16.9036 11.6339C16.9486 11.5289 16.9666 11.4299 16.9576 11.3359C16.9626 11.2289 16.9646 11.1759 16.9646 11.1759C16.9016 11.1059 16.8836 11.0649 16.9106 11.0529C16.9386 11.0279 16.9666 10.9889 16.9956 10.9369C17.0756 10.9409 17.1056 10.8689 17.0856 10.7209C17.0646 10.6129 17.1286 10.3829 17.2786 10.0289C17.4286 9.6759 17.6106 9.34391 17.8246 9.03391C17.9116 8.90391 18.0386 8.73692 18.2086 8.53092C18.3796 8.31192 18.5626 8.09991 18.7586 7.89591C18.9696 7.67891 19.1576 7.50692 19.3236 7.38092C19.6696 7.11692 19.9716 6.92392 20.2306 6.80292C20.4906 6.68092 20.7676 6.59393 21.0636 6.54093C21.3606 6.48793 21.5616 6.4639 21.6676 6.4689C21.7876 6.47491 21.9426 6.58892 22.1326 6.81092C22.4326 6.95792 22.6456 7.12793 22.7696 7.32093C22.9076 7.51393 22.9886 7.79193 23.0116 8.15293C23.0326 8.55493 22.9786 9.01292 22.8476 9.52692C22.7306 10.0289 22.3886 10.6469 21.8206 11.3809C21.4656 11.8449 21.1426 12.1909 20.8516 12.4179C20.5616 12.6309 20.2176 12.8419 19.8206 13.0509C19.5326 13.2239 19.2726 13.3519 19.0426 13.4349C18.8126 13.5039 18.5436 13.5449 18.2356 13.5579ZM20.2516 11.5289C20.5886 11.1839 20.8576 10.8559 21.0586 10.5449C21.2726 10.2349 21.4786 9.8369 21.6746 9.3519C21.7346 9.2079 21.7766 9.0299 21.7996 8.8179C21.8236 8.5919 21.8256 8.3849 21.8086 8.1969C21.8036 7.9969 21.7626 7.88192 21.6836 7.85092C21.5286 7.75092 21.3366 7.7149 21.1086 7.7439C20.8806 7.7609 20.6286 7.87591 20.3516 8.08991C19.9226 8.41691 19.5426 8.83292 19.2126 9.33792C18.8826 9.82992 18.5556 10.3959 18.2326 11.0349C18.0106 11.5049 17.9466 11.8889 18.0386 12.1869C18.1456 12.4719 18.3876 12.5839 18.7646 12.5209C19.1546 12.4459 19.6506 12.1149 20.2516 11.5289ZM29.0106 14.1579C28.9566 14.1549 28.8776 14.1449 28.7716 14.1269C28.6796 14.0959 28.6026 14.0319 28.5396 13.9359C28.3516 13.6869 28.2346 13.4809 28.1886 13.3189C28.1426 13.1559 28.1466 12.9229 28.2006 12.6189C28.2366 12.4199 28.2576 12.2469 28.2646 12.1009C28.2856 11.9419 28.3046 11.8089 28.3236 11.7029C28.2726 11.6479 28.1706 11.6829 28.0186 11.8089C27.8796 11.9229 27.6856 12.0669 27.4376 12.2429C26.9606 12.7409 26.5356 13.1219 26.1626 13.3849C25.8046 13.6349 25.4826 13.7999 25.1986 13.8809C24.9156 13.9479 24.6476 13.9619 24.3966 13.9239C24.1706 13.8859 23.9956 13.7849 23.8696 13.6189C23.7446 13.4399 23.6686 13.2159 23.6406 12.9469C23.6266 12.6799 23.6396 12.3939 23.6806 12.0879C23.7546 11.6509 23.8666 11.2359 24.0186 10.8429C24.1836 10.4499 24.4376 10.0149 24.7796 9.5369C24.9386 9.2769 25.1436 9.02591 25.3956 8.78391C25.6606 8.52991 25.9446 8.30893 26.2466 8.12293C26.5636 7.92393 26.8636 7.78492 27.1476 7.70392C27.4596 7.59892 27.7756 7.54692 28.0956 7.54791C28.4166 7.53591 28.7016 7.57591 28.9516 7.66791C29.1076 7.75491 29.2316 7.80091 29.3256 7.80591C29.4316 7.80991 29.5146 7.74792 29.5746 7.61692C29.6456 7.51292 29.7196 7.35691 29.7966 7.14691C29.8736 6.92291 29.9626 6.73391 30.0626 6.57791L30.5626 5.2999C30.7256 4.9469 30.9036 4.5749 31.0946 4.1839C31.2866 3.7919 31.5156 3.31591 31.7816 2.75391C32.0286 2.33791 32.2256 2.10093 32.3756 2.04093C32.5256 1.96793 32.6896 2.02891 32.8676 2.22391C33.0066 2.40391 33.0506 2.6059 32.9996 2.8309C32.9496 3.0419 32.8136 3.38291 32.5916 3.85291C32.4916 3.99491 32.4056 4.1309 32.3326 4.2609C32.2606 4.3779 32.1586 4.56691 32.0266 4.82791C31.8336 5.23191 31.6566 5.59792 31.4946 5.92392C31.3336 6.23692 31.1636 6.59592 30.9846 7.00192C30.9206 7.21193 30.8366 7.4549 30.7306 7.7309C30.6376 8.0069 30.5586 8.25692 30.4946 8.47992C30.4456 8.69192 30.3896 8.88891 30.3276 9.07291C30.2796 9.24491 30.2286 9.32891 30.1756 9.32691C30.0636 9.44191 29.9536 9.64991 29.8466 9.95191C29.7396 10.2409 29.6456 10.5429 29.5636 10.8599C29.4956 11.1769 29.4366 11.4409 29.3866 11.6529C29.3526 11.8109 29.3236 12.0169 29.2986 12.2689C29.2726 12.5219 29.2546 12.7679 29.2436 13.0069C29.2336 13.2339 29.2256 13.3939 29.2216 13.4869C29.2076 13.7799 29.1926 13.9659 29.1756 14.0449C29.1586 14.1249 29.1036 14.1619 29.0106 14.1579ZM24.8136 12.7019C25.0926 12.7149 25.3916 12.6079 25.7086 12.3829C26.0396 12.1579 26.3716 11.9059 26.7046 11.6279C26.9136 11.4509 27.1376 11.2139 27.3786 10.9189C27.6326 10.6229 27.8736 10.3279 28.1006 10.0309C28.3416 9.73492 28.5336 9.4769 28.6776 9.2569C28.8216 9.0229 28.8946 8.87991 28.8976 8.82691C28.9006 8.75991 28.8426 8.71093 28.7236 8.67893C28.6056 8.64593 28.4666 8.6269 28.3066 8.6189C28.1606 8.5989 28.0406 8.59992 27.9456 8.62192C27.6496 8.67492 27.3506 8.7949 27.0486 8.9809C26.7596 9.1679 26.4386 9.45292 26.0876 9.83792C25.7216 10.2479 25.4146 10.6739 25.1676 11.1159C24.9326 11.5589 24.7826 11.9329 24.7146 12.2369C24.6476 12.5399 24.6796 12.6949 24.8136 12.7019ZM36.4266 14.6619C36.3306 14.7109 36.2056 14.6849 36.0496 14.5849C35.9076 14.4849 35.7676 14.3379 35.6296 14.1449C35.5436 13.9799 35.4856 13.8039 35.4536 13.6159C35.4356 13.4279 35.4346 13.1679 35.4506 12.8349C35.4756 12.5689 35.4706 12.3949 35.4346 12.3139C35.4116 12.2319 35.3376 12.2419 35.2126 12.3429C35.0886 12.4309 34.8726 12.6149 34.5666 12.8939C34.2176 13.2119 33.8866 13.4559 33.5716 13.6289C33.2696 13.8019 33.0256 13.8769 32.8396 13.8549C32.7466 13.8509 32.6426 13.7989 32.5266 13.6999C32.4256 13.5889 32.3316 13.4579 32.2446 13.3069C32.1586 13.1429 32.0866 12.9789 32.0276 12.8159C31.9606 12.5189 31.9646 12.1459 32.0396 11.6959C32.1276 11.2319 32.2566 10.7509 32.4266 10.2519C32.5966 9.75292 32.7856 9.28092 32.9926 8.83692C33.2136 8.39292 33.4306 8.0359 33.6436 7.7659C33.8696 7.4959 34.0626 7.36492 34.2216 7.37192C34.3286 7.37692 34.4196 7.43492 34.4946 7.54492C34.5826 7.65592 34.6686 7.82692 34.7506 8.05692C34.7996 8.15292 34.8156 8.2339 34.7996 8.2999C34.7966 8.3659 34.7396 8.44392 34.6286 8.53192C34.5016 8.68592 34.3506 8.9199 34.1756 9.2319C34.0146 9.5449 33.8516 9.88391 33.6876 10.2499C33.5376 10.6169 33.4006 10.9709 33.2786 11.3129C33.1556 11.6539 33.0696 11.9369 33.0186 12.1609C32.9686 12.3729 32.9706 12.4799 33.0236 12.4819C33.2106 12.4909 33.4336 12.4279 33.6936 12.2929C33.9676 12.1449 34.2296 11.9639 34.4796 11.7489C34.7716 11.4819 35.0326 11.1869 35.2616 10.8639C35.5036 10.5419 35.7456 10.1989 35.9896 9.83692C36.1756 9.57792 36.3686 9.29391 36.5696 8.98291C36.7846 8.67191 36.9216 8.45192 36.9806 8.32092C37.1836 7.98292 37.3346 7.7569 37.4326 7.6409C37.5326 7.5119 37.6496 7.43091 37.7846 7.39691C37.8516 7.39991 37.9116 7.40292 37.9646 7.40592C38.0316 7.40892 38.0646 7.40991 38.0646 7.40991C38.1436 7.42691 38.2346 7.49191 38.3356 7.60291C38.4396 7.66091 38.4976 7.71691 38.5086 7.77091C38.5196 7.81191 38.5236 7.86492 38.5206 7.93192C38.4616 8.06292 38.3656 8.25792 38.2336 8.51892C38.1146 8.76692 38.0266 8.9499 37.9676 9.0679C37.6876 9.6289 37.4086 10.1829 37.1296 10.7309C36.8646 11.2649 36.6656 11.8169 36.5326 12.3849C36.4966 12.5699 36.4796 12.7889 36.4816 13.0429C36.4966 13.2839 36.5286 13.4589 36.5776 13.5679C36.6136 13.6499 36.6556 13.7449 36.7046 13.8539C36.7666 13.9499 36.8356 14.0339 36.9126 14.1039C37.0286 14.1899 37.0446 14.2769 36.9606 14.3669C36.8896 14.4569 36.7926 14.5319 36.6696 14.5929C36.5476 14.6409 36.4666 14.6639 36.4266 14.6619ZM42.0246 14.4409C41.8486 14.5129 41.6466 14.5369 41.4206 14.5139C41.1956 14.4899 40.8926 14.4019 40.5126 14.2509C40.4856 14.2499 40.4266 14.2199 40.3366 14.1629C40.2586 14.1059 40.1756 14.0349 40.0856 13.9509C40.0096 13.8539 39.9486 13.7509 39.8996 13.6419C39.7006 13.3259 39.6356 12.8689 39.7036 12.2709C39.7706 11.6739 39.9906 10.9629 40.3626 10.1399C40.4656 9.94392 40.6166 9.6979 40.8176 9.3999C41.0316 9.1029 41.2376 8.83192 41.4356 8.58792C41.6476 8.33092 41.7946 8.18392 41.8766 8.14792C41.8766 8.14792 41.9516 8.12491 42.1006 8.07791C42.2496 8.03191 42.4396 7.95391 42.6716 7.8439C42.7396 7.82091 42.8136 7.7979 42.8946 7.7749C42.9896 7.7519 43.0836 7.73691 43.1776 7.72791C43.2716 7.71891 43.3516 7.72192 43.4176 7.73892C43.6826 7.76392 43.9516 7.87691 44.2226 8.07691C44.5076 8.26291 44.7376 8.48091 44.9126 8.72891C45.0886 8.96391 45.1396 9.16692 45.0646 9.33692C45.0636 9.36392 45.0216 9.41491 44.9376 9.49091C44.8676 9.55491 44.7846 9.62392 44.6876 9.69992C44.6046 9.76292 44.5346 9.82592 44.4786 9.88993C44.4086 9.96692 44.3136 9.9959 44.1946 9.9769C44.0886 9.9589 43.9906 9.90093 43.9016 9.80393C43.8276 9.69293 43.7866 9.55791 43.7806 9.39691C43.7586 9.28991 43.6636 9.18493 43.4946 9.08393C43.3396 8.98293 43.2616 8.93292 43.2616 8.93292C43.1556 8.92792 42.9976 9.02091 42.7886 9.21091C42.5936 9.38891 42.3966 9.6069 42.1976 9.8649C41.9466 10.0929 41.7266 10.3699 41.5386 10.6949C41.3506 11.0059 41.1966 11.3059 41.0756 11.5939C40.9696 11.8699 40.8936 12.0659 40.8486 12.1839C40.7886 12.3149 40.7736 12.5009 40.8026 12.7429C40.8316 12.9849 40.8716 13.1329 40.9216 13.1889C40.9736 13.2179 41.1066 13.2309 41.3206 13.2279C41.5476 13.2249 41.8156 13.2099 42.1236 13.1849C42.4326 13.1459 42.7346 13.0999 43.0306 13.0469C43.3266 12.9939 43.5696 12.9309 43.7606 12.8599C44.0206 12.7119 44.2446 12.6289 44.4326 12.6109C44.6206 12.5929 44.7596 12.5999 44.8516 12.6309C44.9956 12.6909 45.0796 12.7679 45.1016 12.8619C45.1236 12.9569 45.0856 13.0619 44.9866 13.1769C44.8886 13.2799 44.7236 13.3849 44.4916 13.4949C44.2736 13.5909 44.0746 13.7019 43.8956 13.8279C43.7306 13.9399 43.6456 14.0299 43.6426 14.0959C43.5896 14.0939 43.5286 14.1109 43.4606 14.1479C43.4056 14.1719 43.3586 14.1759 43.3196 14.1609C43.2926 14.1599 43.1856 14.1749 42.9966 14.2059C42.8086 14.2379 42.6136 14.2749 42.4116 14.3189C42.2226 14.3639 42.0936 14.4049 42.0246 14.4409ZM48.1616 15.1069C48.0166 15.0729 47.8666 14.9929 47.7126 14.8659C47.5716 14.7259 47.4456 14.5729 47.3336 14.4079C47.2346 14.2289 47.1686 14.0729 47.1346 13.9379C47.1356 13.9109 47.1176 13.8769 47.0796 13.8349C47.0546 13.7939 47.0426 13.7729 47.0426 13.7729C46.9906 13.7309 46.9656 13.5559 46.9666 13.2489C46.9816 12.9299 47.0176 12.5779 47.0756 12.1929C47.1336 11.8089 47.1946 11.5049 47.2586 11.2809C47.3346 11.0709 47.4476 10.7889 47.5976 10.4359C47.7486 10.0689 47.8766 9.74091 47.9836 9.45191L48.5766 8.31891L47.7876 8.06192C47.6956 8.03092 47.6186 7.9739 47.5556 7.8909C47.5056 7.8079 47.4826 7.74092 47.4846 7.68692C47.4896 7.58092 47.5556 7.45692 47.6826 7.31592C47.8096 7.16192 47.8996 7.08592 47.9536 7.08792C48.0196 7.10492 48.1386 7.11691 48.3116 7.12491C48.4986 7.13391 48.6786 7.13492 48.8526 7.12992C49.0256 7.12492 49.1336 7.11592 49.1736 7.10492C49.2286 7.08092 49.2836 7.04991 49.3386 7.01291C49.3936 6.96191 49.4376 6.88991 49.4686 6.79791C49.5416 6.65491 49.6076 6.52492 49.6666 6.40692C49.7266 6.27592 49.8066 6.13291 49.9066 5.97791C50.0086 5.80891 50.0886 5.66592 50.1466 5.54791C50.2196 5.43191 50.3266 5.2699 50.4696 5.0629C50.5406 4.9729 50.6196 4.86291 50.7056 4.73291C50.7916 4.60391 50.8966 4.4949 51.0206 4.4079C51.1456 4.3069 51.2676 4.26591 51.3866 4.28491C51.5206 4.29091 51.6826 4.3849 51.8746 4.5679C51.9746 4.7059 52.0296 4.80792 52.0406 4.87592C52.0506 4.94292 51.9916 5.06693 51.8626 5.24793C51.7456 5.46893 51.6086 5.68991 51.4516 5.90891C51.3076 6.12991 51.1706 6.34993 51.0406 6.57093C50.8136 6.85393 50.7666 7.01891 50.8976 7.06491C51.0286 7.11091 51.4026 7.1019 52.0196 7.0369C52.4096 6.9879 52.6886 7.0209 52.8566 7.1359C53.0256 7.2369 53.1176 7.40191 53.1336 7.62891C53.1586 7.95091 53.1166 8.14192 53.0066 8.20392C52.8976 8.26592 52.5896 8.2849 52.0836 8.2609C51.7616 8.2999 51.4866 8.31991 51.2596 8.32291C51.0336 8.31291 50.8666 8.3049 50.7606 8.2999C50.5866 8.3049 50.4726 8.30693 50.4196 8.30393C50.3666 8.30193 50.2856 8.31092 50.1776 8.33292C50.0706 8.35492 49.9876 8.39792 49.9316 8.46192C49.8896 8.51292 49.8386 8.59092 49.7806 8.69492C49.7246 8.74592 49.6386 8.88191 49.5216 9.10291C49.4046 9.32491 49.2596 9.56492 49.0876 9.82392C48.8756 10.3749 48.6896 10.9269 48.5306 11.4799C48.3716 12.0199 48.2406 12.5479 48.1366 13.0629C48.0676 13.3939 48.0636 13.6269 48.1236 13.7639C48.1846 13.8859 48.3546 13.9679 48.6336 14.0069C48.7786 14.0279 49.0126 14.0379 49.3326 14.0399C49.6666 14.0289 49.9286 14.0009 50.1176 13.9559C50.2666 13.8959 50.4226 13.8369 50.5856 13.7779C50.7496 13.7049 50.8996 13.6319 51.0366 13.5579C51.1596 13.4969 51.2826 13.4359 51.4056 13.3749C51.5286 13.3009 51.5906 13.2639 51.5906 13.2639C51.6626 13.1599 51.7376 13.1299 51.8156 13.1739C51.8936 13.2179 51.9556 13.3209 52.0016 13.4829C51.9936 13.6429 51.9526 13.8079 51.8776 13.9779C51.8036 14.1479 51.5476 14.3429 51.1106 14.5629C50.4936 14.9079 49.9306 15.1089 49.4206 15.1649C48.9246 15.2089 48.5046 15.1889 48.1616 15.1069ZM58.4546 14.7439C58.4016 14.7409 58.3356 14.7249 58.2566 14.6939C58.1916 14.6509 58.1596 14.6299 58.1596 14.6299C58.1616 14.5759 58.1446 14.5089 58.1086 14.4269C58.0856 14.3459 58.0756 14.2789 58.0776 14.2259C57.9876 14.1679 57.9366 14.1119 57.9256 14.0579C57.9156 13.9909 57.9406 13.8849 58.0006 13.7409C58.0866 13.6119 58.2026 13.4039 58.3496 13.1169C58.4976 12.8169 58.6526 12.4969 58.8146 12.1569C58.9776 11.8049 59.1346 11.4579 59.2836 11.1179C59.4326 10.7779 59.5596 10.4899 59.6636 10.2549C59.7686 10.0059 59.8296 9.85492 59.8446 9.80292C59.8476 9.74892 59.8706 9.6839 59.9146 9.6059C59.9576 9.5279 60.0076 9.4629 60.0636 9.4119C60.1746 9.3239 60.2876 9.3229 60.4036 9.4079C60.5206 9.4799 60.6146 9.60492 60.6866 9.78192C60.7726 9.94592 60.8106 10.1279 60.8016 10.3279C60.7976 10.4209 60.7196 10.6569 60.5686 11.0379C60.4176 11.4039 60.2176 11.8419 59.9666 12.3509C59.7296 12.8609 59.4656 13.3759 59.1746 13.8959C58.9566 14.2729 58.8186 14.5139 58.7606 14.6179C58.7026 14.7079 58.6006 14.7499 58.4546 14.7439ZM61.7426 7.30792C61.5826 7.30092 61.4126 7.23291 61.2316 7.10391C61.0646 6.96291 60.9186 6.79591 60.7946 6.60291C60.6836 6.39791 60.6336 6.19491 60.6426 5.99591C60.6456 5.92891 60.6896 5.83792 60.7756 5.72092C60.8606 5.60492 60.9466 5.48893 61.0316 5.37293C61.1176 5.25693 61.1606 5.18491 61.1616 5.15891C61.2686 5.16391 61.3476 5.17391 61.4006 5.18991C61.4676 5.19291 61.5456 5.22292 61.6366 5.28092C61.7676 5.62092 61.9346 5.90191 62.1376 6.12491C62.3546 6.34891 62.4596 6.5339 62.4526 6.6799C62.4386 6.9729 62.4036 7.1579 62.3466 7.2359C62.2906 7.2999 62.0886 7.32392 61.7426 7.30792ZM62.3496 15.1649C62.3126 15.1089 62.2756 15.0409 62.2386 14.9589C62.2156 14.8779 62.2056 14.8109 62.2086 14.7579C62.2096 14.7309 62.2046 14.6969 62.1926 14.6569C62.1946 14.6169 62.1696 14.5959 62.1156 14.5929C62.0776 14.5509 62.1116 14.3989 62.2166 14.1369C62.3366 13.8629 62.4846 13.5489 62.6616 13.1969C62.8506 12.8449 63.0406 12.5069 63.2286 12.1819C63.4316 11.8439 63.5976 11.5789 63.7266 11.3839C63.7946 11.3469 63.8376 11.2959 63.8536 11.2299C63.8836 11.1509 63.8856 11.1109 63.8596 11.1099C63.8596 11.1099 63.8956 11.0519 63.9676 10.9349C64.0536 10.8059 64.1176 10.7219 64.1596 10.6839C64.2746 10.5019 64.3626 10.3189 64.4246 10.1349C64.4876 9.93792 64.5086 9.77191 64.4886 9.63791C64.4376 9.56891 64.3786 9.54592 64.3116 9.56992C64.2436 9.59292 64.2096 9.60492 64.2096 9.60492C64.1556 9.61592 64.0746 9.63892 63.9656 9.67392C63.8716 9.69592 63.7826 9.73192 63.7006 9.78092C63.3846 9.97992 63.1736 10.0709 63.0676 10.0519C62.9616 10.0209 62.8506 9.8419 62.7316 9.5159C62.6856 9.3669 62.6706 9.25991 62.6866 9.19391C62.7036 9.12791 62.7596 9.0569 62.8566 8.9809C62.9676 8.8929 63.0706 8.83792 63.1646 8.81592C63.2596 8.77992 63.3346 8.7429 63.3906 8.7059C63.5406 8.6189 63.6636 8.55792 63.7586 8.52292C63.8676 8.48792 63.9486 8.46492 64.0026 8.45392C64.3536 8.36392 64.6476 8.35691 64.8846 8.43491C65.1206 8.51291 65.2926 8.69391 65.3996 8.97891C65.5756 9.21391 65.6566 9.47791 65.6436 9.77091C65.6306 10.0509 65.5216 10.3729 65.3176 10.7369L65.1046 11.0279C65.0316 11.1579 65.0156 11.2239 65.0556 11.2259C65.1086 11.2279 65.1706 11.1839 65.2416 11.0939C65.2836 11.0429 65.3676 10.9669 65.4926 10.8659C65.6176 10.7649 65.6996 10.7149 65.7396 10.7169C65.7396 10.7169 65.7526 10.7109 65.7806 10.6989C65.8206 10.6869 65.8436 10.6349 65.8476 10.5419C65.8896 10.5039 65.9316 10.4659 65.9736 10.4269C66.0286 10.3899 66.0556 10.3709 66.0556 10.3709C66.1096 10.3739 66.2116 10.3179 66.3636 10.2049C66.5296 10.0799 66.7236 9.93491 66.9446 9.77191C67.0956 9.67191 67.2316 9.62492 67.3516 9.63092C67.6626 9.55192 67.9036 9.66291 68.0766 9.96491C68.2626 10.2669 68.3456 10.6509 68.3236 11.1169L67.8536 12.1769L68.6136 11.3309C68.6986 11.2279 68.7836 11.1389 68.8666 11.0619C68.9636 10.9869 69.0466 10.9239 69.1156 10.8739C69.1466 10.7819 69.1896 10.7299 69.2436 10.7189C69.2966 10.7089 69.3236 10.7029 69.3236 10.7029C69.3236 10.7029 69.3376 10.7039 69.3636 10.7049C69.3916 10.6929 69.4056 10.6669 69.4076 10.6269C69.4766 10.5769 69.5516 10.5339 69.6336 10.4969C69.7166 10.4479 69.7716 10.3969 69.8006 10.3449C70.0316 10.2619 70.2386 10.2579 70.4226 10.3339C70.6066 10.3959 70.7586 10.5689 70.8786 10.8549C70.9646 11.0199 71.0116 11.1619 71.0186 11.2819C71.0266 11.4029 71.0246 11.5829 71.0136 11.8229C70.9776 12.0209 70.9436 12.1799 70.9116 12.2979C70.8936 12.4039 70.8746 12.5169 70.8556 12.6359C70.8366 12.7559 70.8096 12.9209 70.7726 13.1329C70.7146 13.2369 70.6756 13.3489 70.6576 13.4679C70.6516 13.5879 70.6466 13.7009 70.6416 13.8079C70.6336 13.9809 70.6346 14.1009 70.6446 14.1679C70.6556 14.2219 70.7076 14.2509 70.8006 14.2549C70.9896 14.2239 71.2466 14.1429 71.5726 14.0109C71.9136 13.8669 72.1666 13.7249 72.3336 13.5859C72.5416 13.4089 72.7196 13.3229 72.8656 13.3299C73.0266 13.3239 73.1226 13.4019 73.1556 13.5639C73.1796 13.6179 73.1276 13.7359 72.9986 13.9169C72.8836 14.0989 72.7486 14.2719 72.5946 14.4389C72.4526 14.6059 72.3496 14.6879 72.2826 14.6849C72.2426 14.6829 72.1946 14.7209 72.1376 14.7979C72.0806 14.8619 72.0186 14.9129 71.9496 14.9489C71.8526 15.0379 71.7546 15.1209 71.6586 15.1959C71.5746 15.2719 71.4796 15.3079 71.3726 15.3029C71.3196 15.3009 71.2516 15.3169 71.1706 15.3539C71.1026 15.3769 71.0216 15.3869 70.9286 15.3829C70.7936 15.4159 70.5886 15.3869 70.3126 15.2939C70.0496 15.2019 69.8846 15.0069 69.8186 14.7099C69.7726 14.5609 69.7366 14.3259 69.7116 14.0049C69.6866 13.6699 69.7086 13.3369 69.7776 13.0069C69.8416 12.7689 69.8856 12.5509 69.9086 12.3519C69.9306 12.1529 69.9636 12.0139 70.0076 11.9359C70.0096 11.8959 70.0136 11.8029 70.0206 11.6559C70.0276 11.4969 70.0116 11.4159 69.9716 11.4139C69.9186 11.4109 69.7876 11.5049 69.5786 11.6959C69.3826 11.8739 69.1456 12.1029 68.8656 12.3839C68.5986 12.6649 68.3316 12.9599 68.0636 13.2669C67.7956 13.5749 67.5756 13.8519 67.4046 14.0979C67.2776 14.2389 67.1626 14.4139 67.0596 14.6219C66.9566 14.8309 66.8846 14.9479 66.8436 14.9729C66.7456 15.0749 66.6316 15.0829 66.5016 14.9969C66.3856 14.9109 66.2786 14.7799 66.1796 14.6019C66.1436 14.5199 66.1196 14.4519 66.1096 14.3979C66.0986 14.3309 66.1026 14.2439 66.1216 14.1379C66.1536 14.0199 66.2086 13.8489 66.2856 13.6249C66.3756 13.4029 66.4966 13.0879 66.6496 12.6809C66.8166 12.2349 66.9626 11.8349 67.0856 11.4799C67.2226 11.1129 67.2916 10.9289 67.2916 10.9289C67.2936 10.8759 67.1916 10.9249 66.9846 11.0749C66.7776 11.2119 66.5356 11.3879 66.2586 11.6019C66.1326 11.7429 65.9226 11.9529 65.6286 12.2329C65.3356 12.5139 65.0136 12.8319 64.6636 13.1899C64.3136 13.5469 63.9756 13.9249 63.6496 14.3239C63.2386 14.8519 62.9496 15.1719 62.7846 15.2849C62.6326 15.3979 62.4876 15.3579 62.3496 15.1649ZM74.1616 15.7329C74.1136 15.6239 74.0506 15.5409 73.9736 15.4839C73.8966 15.4139 73.8596 15.3519 73.8616 15.2979C73.8646 15.2449 73.8606 15.1919 73.8496 15.1379C73.8526 15.0709 73.8286 15.0099 73.7776 14.9539C73.7146 14.8709 73.7296 14.6919 73.8226 14.4159C73.9166 14.1259 74.0656 13.7799 74.2716 13.3749C74.4776 12.9579 74.7186 12.5219 74.9926 12.0669C75.1046 11.9659 75.2176 11.8309 75.3316 11.6629C75.4466 11.4949 75.5316 11.3849 75.5876 11.3339C75.5896 11.2809 75.6126 11.2349 75.6536 11.1969C75.6966 11.1459 75.7446 11.1209 75.7976 11.1239L75.8026 11.0039C75.8066 10.9369 75.8716 10.8269 75.9986 10.6729C76.1396 10.5189 76.3076 10.3529 76.5026 10.1749C76.6976 9.9839 76.8996 9.80692 77.1076 9.64292C77.3156 9.46592 77.4886 9.3399 77.6256 9.2659C77.9136 9.0929 78.2056 8.99292 78.5006 8.96692C78.8086 8.94092 79.0656 9.01991 79.2706 9.20291C79.3086 9.24391 79.3716 9.3139 79.4606 9.4119C79.5496 9.5089 79.6516 9.62091 79.7656 9.74591C79.8936 9.85891 80.0216 9.97791 80.1496 10.1039L80.8576 10.7979L80.4516 11.7799C80.2546 12.3049 80.1856 12.7689 80.2476 13.1719C80.3216 13.5759 80.4396 13.9289 80.5986 14.2299C80.6586 14.3789 80.7856 14.5249 80.9786 14.6679C81.1856 14.8109 81.3816 14.8999 81.5666 14.9349C81.6726 14.9539 81.7706 14.9979 81.8616 15.0689C81.9516 15.1399 81.9926 15.2489 81.9866 15.3949C81.9796 15.5279 81.9486 15.6339 81.8916 15.7109C81.8346 15.7889 81.7386 15.8379 81.6046 15.8579C81.1626 15.8909 80.7546 15.7649 80.3806 15.4809C80.0196 15.1969 79.6936 14.7419 79.4026 14.1139C79.3536 14.0319 79.2866 13.8819 79.2036 13.6639C79.1336 13.4339 79.0946 13.2859 79.0836 13.2179C79.0276 13.2819 78.9216 13.4039 78.7666 13.5839C78.6116 13.7499 78.4926 13.8719 78.4096 13.9479C77.4196 14.8629 76.5706 15.4709 75.8616 15.7719C75.1676 16.0599 74.6016 16.0469 74.1616 15.7329ZM74.9336 14.6469C74.9286 14.7409 75.0686 14.7469 75.3526 14.6669C75.6506 14.5739 75.9726 14.4019 76.3176 14.1509C76.7886 13.7859 77.2616 13.3809 77.7356 12.9359C78.2236 12.4909 78.6166 12.0749 78.9146 11.6889L79.3876 10.9899C79.2686 10.6779 79.1316 10.4639 78.9766 10.3499C78.8356 10.2239 78.7116 10.1579 78.6056 10.1529C78.4326 10.1449 78.1656 10.2929 77.8046 10.5959C77.4566 10.8999 77.0766 11.3099 76.6656 11.8249C76.2546 12.3399 75.8616 12.9089 75.4856 13.5319C75.3396 13.7919 75.2076 14.0459 75.0896 14.2939C74.9856 14.5299 74.9336 14.6469 74.9336 14.6469ZM84.9906 20.7799C84.7326 20.8749 84.4506 20.8949 84.1466 20.8409C83.8546 20.8009 83.5656 20.7009 83.2796 20.5409C83.0066 20.3809 82.7616 20.1899 82.5456 19.9659C82.4566 19.8689 82.3636 19.7169 82.2656 19.5129C82.1816 19.3219 82.1166 19.1389 82.0716 18.9629C82.0396 18.7879 82.0506 18.6879 82.1056 18.6639C82.1606 18.6269 82.2346 18.6169 82.3266 18.6349C82.4196 18.6519 82.5046 18.6759 82.5836 18.7069C82.6746 18.7509 82.7196 18.7999 82.7166 18.8529C82.7936 18.9229 82.9296 19.0299 83.1226 19.1719C83.3156 19.3279 83.4646 19.4209 83.5706 19.4529C83.8456 19.5589 84.0506 19.6089 84.1836 19.6019C84.3176 19.5949 84.4396 19.5529 84.5496 19.4789C84.7716 19.3019 84.9486 19.0829 85.0806 18.8219C85.2136 18.5619 85.3566 18.2009 85.5116 17.7409L85.5836 17.4839C85.7126 16.9959 85.8576 16.4759 86.0166 15.9229C86.1756 15.3689 86.3096 14.9349 86.4176 14.6199C86.4986 14.3169 86.5276 14.1109 86.5056 14.0029C86.4976 13.8959 86.4366 13.9129 86.3236 14.0549C86.2696 14.0659 86.1946 14.0889 86.0996 14.1249C86.0186 14.1609 85.9226 14.2029 85.8136 14.2509C85.6506 14.3239 85.4866 14.3959 85.3236 14.4689C85.1606 14.5279 85.0246 14.5689 84.9166 14.5899C84.8106 14.5849 84.7106 14.5869 84.6166 14.5959C84.5236 14.5919 84.4766 14.5899 84.4766 14.5899C84.3666 14.6519 84.1746 14.6359 83.8986 14.5429C83.6366 14.4369 83.4026 14.2929 83.1976 14.1099C83.0846 13.9449 83.0036 13.8209 82.9546 13.7379C82.9056 13.6429 82.8766 13.5479 82.8676 13.4539C82.8596 13.3469 82.8596 13.1869 82.8696 12.9739C82.8666 12.7599 82.9806 12.4579 83.2126 12.0689C83.4576 11.6659 83.7486 11.2929 84.0846 10.9479C84.3496 10.7059 84.6886 10.4619 85.1006 10.2139C85.5116 9.9659 85.9216 9.76493 86.3296 9.60993C86.7506 9.45593 87.0936 9.39191 87.3596 9.41791C87.4916 9.43691 87.6176 9.46291 87.7366 9.49591C87.8556 9.51391 87.9856 9.58091 88.1276 9.69391C88.3096 9.79591 88.4386 9.9019 88.5136 10.0119C88.5886 10.1219 88.6856 10.3339 88.8046 10.6459C88.8746 10.8629 88.9246 11.0789 88.9546 11.2939C88.9846 11.4959 88.9956 11.6899 88.9876 11.8759C88.9776 12.0759 88.9426 12.2539 88.8826 12.4119C88.8216 12.5689 88.7426 12.6919 88.6446 12.7809C88.6186 12.7799 88.5846 12.7849 88.5446 12.7969C88.5176 12.7949 88.4906 12.8009 88.4636 12.8129C88.3826 12.8359 88.3146 12.8459 88.2616 12.8429C88.2216 12.8419 88.1726 12.8859 88.1156 12.9769C88.0586 13.0539 88.0136 13.1589 87.9806 13.2909C87.9636 13.3699 87.9396 13.4489 87.9096 13.5279C87.8926 13.6069 87.8696 13.6799 87.8396 13.7449C87.8096 13.8099 87.7806 13.8689 87.7516 13.9209C87.7356 13.9599 87.7276 13.9929 87.7266 14.0199C87.7246 14.0599 87.7166 14.0929 87.7016 14.1189C87.6876 14.1449 87.6656 14.1769 87.6376 14.2159C87.5946 14.2809 87.5506 14.3649 87.5056 14.4699C87.4746 14.5619 87.4566 14.6609 87.4516 14.7679L87.3616 14.9839C87.3156 15.1149 87.2696 15.2329 87.2246 15.3379C87.1936 15.4429 87.1766 15.5089 87.1756 15.5359L87.0776 15.9319C87.0466 16.0239 87.0086 16.1089 86.9656 16.1869C86.9356 16.2519 86.9036 16.3579 86.8706 16.5029C86.8376 16.6349 86.7946 16.8529 86.7396 17.1579C86.4206 18.2909 86.1146 19.1369 85.8216 19.6979C85.5276 20.2709 85.2506 20.6319 84.9906 20.7799ZM83.9486 13.4639C84.2886 13.6129 84.6476 13.6429 85.0256 13.5539C85.4026 13.4649 85.8406 13.2449 86.3376 12.8939C86.6536 12.6819 86.9196 12.4339 87.1326 12.1499C87.3596 11.8539 87.5276 11.5479 87.6356 11.2329C87.7116 11.0359 87.7376 10.8969 87.7146 10.8159C87.6926 10.7209 87.6086 10.6639 87.4626 10.6439C87.2386 10.5799 86.9506 10.6069 86.5986 10.7239C86.2466 10.8279 85.8856 10.9849 85.5156 11.1939C85.4446 11.2839 85.3606 11.3669 85.2636 11.4429C85.1666 11.5189 85.0766 11.5809 84.9946 11.6309C84.9256 11.6679 84.8916 11.6859 84.8916 11.6859C84.8776 11.7119 84.8556 11.7439 84.8276 11.7829C84.8116 11.8219 84.7776 11.8539 84.7226 11.8779C84.5836 11.9919 84.4426 12.1659 84.2976 12.3989C84.1536 12.6329 84.0436 12.8549 83.9666 13.0649C83.9036 13.2749 83.8976 13.4079 83.9486 13.4639ZM91.7266 17.3289C91.1406 17.3019 90.6716 17.0599 90.3186 16.6029C89.9666 16.1329 89.8136 15.5649 89.8576 14.8999C89.9066 14.4209 90.0236 13.9129 90.2086 13.3739C90.4076 12.8229 90.6586 12.3009 90.9616 11.8079C91.2656 11.3009 91.5936 10.8619 91.9436 10.4919C92.2946 10.1209 92.6536 9.86392 93.0206 9.72092C93.1576 9.65992 93.2996 9.6139 93.4476 9.5799C93.6096 9.5479 93.7706 9.53491 93.9306 9.54291C94.0766 9.54991 94.2286 9.58292 94.3856 9.64392C94.5436 9.69092 94.6746 9.74391 94.7786 9.80191C95.0016 9.90591 95.1686 10.0269 95.2826 10.1659C95.3966 10.3049 95.4936 10.5159 95.5736 10.7999C95.6016 11.0549 95.6136 11.2359 95.6086 11.3419C95.6036 11.4489 95.5626 11.6069 95.4866 11.8169C95.3046 12.2889 95.0786 12.6929 94.8096 13.0269C94.5406 13.3619 94.1876 13.6389 93.7496 13.8589C93.6406 13.9209 93.5116 13.9679 93.3626 14.0009C93.2286 14.0219 93.0876 14.0289 92.9416 14.0219C92.6746 14.0089 92.4176 13.9509 92.1686 13.8459C91.9336 13.7279 91.7476 13.5659 91.6106 13.3589L91.4786 13.1929L91.4106 13.3499C91.2606 13.7029 91.1386 14.0309 91.0446 14.3339C90.9636 14.6369 90.9176 14.9159 90.9056 15.1689C90.8986 15.3279 90.9046 15.4819 90.9246 15.6299C90.9576 15.7779 91.0056 15.9069 91.0666 16.0169C91.1166 16.0989 91.2006 16.1629 91.3186 16.2089C91.4506 16.2419 91.5896 16.2609 91.7356 16.2679C91.8296 16.2729 91.9226 16.2769 92.0156 16.2809C92.1226 16.2729 92.2236 16.2509 92.3186 16.2149C92.5496 16.1459 92.7326 16.0679 92.8706 15.9809C93.0216 15.8939 93.1726 15.8009 93.3236 15.7009L93.4056 15.6649L93.3856 15.6639C93.5496 15.5919 93.6926 15.5179 93.8166 15.4439C93.9536 15.3699 94.0216 15.3329 94.0216 15.3329C94.0746 15.3359 94.1296 15.3049 94.1866 15.2409C94.2956 15.1919 94.4276 15.2189 94.5826 15.3189C94.7516 15.4199 94.8326 15.5439 94.8256 15.6909C94.8096 15.7569 94.7446 15.8609 94.6316 16.0019C94.5186 16.1299 94.3926 16.2509 94.2546 16.3649C94.1286 16.4789 94.0256 16.5409 93.9456 16.5509C93.9316 16.5639 93.8836 16.5879 93.8016 16.6239C93.7206 16.6469 93.6656 16.6709 93.6386 16.6969L93.6586 16.6979C93.5306 16.8519 93.4076 16.9259 93.2876 16.9209L93.1276 16.9129C93.0696 17.0039 92.8916 17.1029 92.5936 17.2089C92.2956 17.3019 92.0066 17.3419 91.7266 17.3289ZM92.8296 12.9749C93.0696 12.9869 93.2796 12.9299 93.4586 12.8039C93.6516 12.6669 93.8186 12.5139 93.9606 12.3469C94.2436 11.9999 94.4126 11.6609 94.4676 11.3299C94.5376 10.9859 94.5086 10.7439 94.3816 10.6049C94.3036 10.5609 94.2306 10.5379 94.1646 10.5349C94.1116 10.5189 93.9976 10.5339 93.8216 10.5789C93.7006 10.5999 93.5296 10.6919 93.3086 10.8549C93.0876 11.0189 92.8656 11.2019 92.6426 11.4049C92.4326 11.6089 92.2716 11.7819 92.1576 11.9229L91.8786 12.3309C91.9876 12.2959 92.0876 12.2799 92.1816 12.2849C92.2886 12.2759 92.3476 12.2859 92.3596 12.3129C92.3546 12.4329 92.3696 12.5469 92.4046 12.6549C92.4536 12.7509 92.5096 12.8269 92.5736 12.8829C92.6516 12.9399 92.7366 12.9709 92.8296 12.9749Z" fill="#F67ACB"/>
</svg>
